<?xml version="1.0" standalone="no"?>
<!DOCTYPE svg PUBLIC "-//W3C//DTD SVG 20010904//EN"
 "http://www.w3.org/TR/2001/REC-SVG-20010904/DTD/svg10.dtd">
<svg version="1.0" xmlns="http://www.w3.org/2000/svg"
 width="512.000000pt" height="512.000000pt" viewBox="0 0 512.000000 512.000000"
 preserveAspectRatio="xMidYMid meet">
<metadata>
Created by potrace 1.11, written by Peter Selinger 2001-2013
</metadata>
<g transform="translate(0.000000,512.000000) scale(0.100000,-0.100000)"
fill="#000000" stroke="none">
<path d="M570 2560 l0 -1291 523 1 c574 2 632 6 792 61 246 84 399 232 472
454 34 105 38 293 8 395 -57 198 -207 328 -454 394 l-84 22 59 24 c145 59 278
167 341 280 125 220 80 559 -96 727 -86 82 -218 152 -342 179 -165 36 -172 37
-696 41 l-523 4 0 -1291z m978 1004 c26 -4 49 -8 52 -9 3 0 23 -4 44 -9 108
-21 220 -103 265 -193 32 -64 48 -181 39 -272 -16 -147 -89 -251 -222 -316
-118 -59 -183 -67 -513 -70 l-293 -2 -1 31 c-6 235 0 839 9 845 14 9 563 5
620 -5z m127 -1137 c135 -30 229 -84 290 -167 83 -113 101 -285 46 -430 -52
-136 -174 -229 -351 -266 -52 -11 -152 -14 -401 -15 -182 0 -333 2 -336 5 -9
9 -8 886 1 889 5 2 160 2 345 1 261 -1 352 -5 406 -17z"/>
<path d="M2850 2560 l0 -1290 154 0 154 0 0 580 c1 319 3 584 6 588 3 5 1081
8 1201 3 20 -1 20 -8 19 -586 l-1 -585 153 0 154 0 0 1290 0 1290 -154 0 -153
0 -1 -547 c0 -302 -1 -560 -1 -575 l-1 -28 -610 0 -610 0 0 33 c-1 17 -1 276
-1 575 l-1 542 -154 0 -154 0 0 -1290z"/>
</g>
</svg>
